# xmcd
#
# Track frame offsets:
#	150
#	10877
#	26926
#	47472
#	64129
#	78589
#	90872
#	108797
#	124751
#	141624
#	161727
#	175521
#	202251
#
# Disc length: 2892 seconds
#
# Revision: 1
# Processed by: cddbd v1.4PL0 Copyright (c) Steve Scherf et al.
# Submitted via: audiograbber 1.81.01
#
DISCID=ac0b4a0d
DTITLE=Richie Milton and The Lowdown - Let Me Tell You More
DYEAR=2001
DGENRE=Blues
TTITLE0=Keep My Engine Clean
TTITLE1=In Temptation I'll Be Strong
TTITLE2=Walking Your Shoes
TTITLE3=Reaching For Diamonds
TTITLE4=You Don't Shake It
TTITLE5=Let Me Tell You More
TTITLE6=Moonlight at Midnight
TTITLE7=I See Love
TTITLE8=Speechless
TTITLE9=Don't Walk Away
TTITLE10=Who's Been Teaching You?
TTITLE11=Crazy Ole Man
TTITLE12=Stay Here and Dance
EXTD=Published by Blues Matters!  (http://www.bluesmatters.com)
EXTT0=
EXTT1=
EXTT2=
EXTT3=
EXTT4=
EXTT5=
EXTT6=
EXTT7=
EXTT8=
EXTT9=
EXTT10=
EXTT11=
EXTT12=
PLAYORDER=
